<svg width="35" height="22" viewBox="0 0 35 22" fill="none" xmlns="http://www.w3.org/2000/svg">
<path d="M34.3019 21.1218C34.3169 21.1188 34.3316 21.1148 34.3464 21.1109C34.359 21.1077 34.3717 21.105 34.3841 21.1012C34.3986 21.0968 34.4127 21.0914 34.4268 21.0863C34.4393 21.0818 34.4519 21.0777 34.4643 21.0725C34.4776 21.067 34.4904 21.0605 34.5034 21.0544C34.516 21.0484 34.5288 21.0428 34.5412 21.0361C34.5536 21.0295 34.5652 21.022 34.5773 21.0148C34.5896 21.0074 34.6021 21.0005 34.6142 20.9924C34.627 20.9838 34.6389 20.9743 34.6513 20.9651C34.6617 20.9573 34.6724 20.9501 34.6825 20.9417C34.7013 20.9263 34.7191 20.9099 34.7364 20.893C34.7396 20.89 34.7429 20.8875 34.746 20.8844C34.7493 20.8811 34.752 20.8775 34.7552 20.8742C34.7718 20.8571 34.788 20.8395 34.8033 20.821C34.8122 20.8101 34.8199 20.7988 34.8283 20.7876C34.8368 20.776 34.8458 20.7648 34.8538 20.7527C34.8624 20.7399 34.8699 20.7266 34.8778 20.7134C34.8844 20.7023 34.8914 20.6914 34.8975 20.68C34.9047 20.6667 34.9107 20.6529 34.9171 20.6394C34.9228 20.6274 34.9288 20.6154 34.934 20.6031C34.9395 20.5898 34.9439 20.5762 34.9488 20.5627C34.9535 20.5495 34.9586 20.5364 34.9627 20.523C34.9668 20.5094 34.9698 20.4955 34.9733 20.4816C34.9767 20.468 34.9806 20.4546 34.9832 20.4408C34.9865 20.4245 34.9885 20.4081 34.9908 20.3916C34.9924 20.3801 34.9946 20.3686 34.9957 20.3569C34.9986 20.3281 35.0001 20.2993 35.0001 20.2704V1.72881C35.0001 1.24962 34.6119 0.861343 34.1327 0.861343H6.80742C6.79979 0.861343 6.79238 0.862268 6.78475 0.862499C6.76821 0.862962 6.75179 0.863656 6.73536 0.865044C6.72229 0.866085 6.70934 0.867589 6.69638 0.869324C6.68158 0.871175 6.66689 0.873372 6.6522 0.876032C6.63844 0.878461 6.62479 0.881353 6.61126 0.884476C6.59749 0.887714 6.58373 0.891184 6.57008 0.895117C6.55655 0.898934 6.54325 0.903097 6.53006 0.907492C6.51653 0.912119 6.503 0.916977 6.48969 0.922298C6.47709 0.927271 6.46471 0.93236 6.45245 0.937911C6.4388 0.944041 6.42527 0.950635 6.41185 0.957459C6.4004 0.963358 6.38918 0.969372 6.37808 0.975733C6.36466 0.983367 6.35148 0.991463 6.33841 0.999791C6.32765 1.00673 6.31713 1.0139 6.30672 1.02119C6.29446 1.02986 6.28231 1.03888 6.2704 1.04837C6.25953 1.05704 6.24889 1.06595 6.23836 1.07509C6.22795 1.08422 6.21766 1.09336 6.20759 1.10308C6.19614 1.11407 6.18516 1.12552 6.17428 1.13708C6.16885 1.14287 6.16306 1.14795 6.15786 1.15385C6.15474 1.15732 6.15231 1.16114 6.1493 1.16461C6.13843 1.17722 6.12825 1.1904 6.11807 1.2037C6.11067 1.21342 6.10303 1.22314 6.0961 1.23308C6.08707 1.24604 6.07875 1.25934 6.07042 1.27275C6.06359 1.28374 6.05654 1.29461 6.05029 1.30583C6.04301 1.31879 6.03664 1.33209 6.03005 1.34539C6.02404 1.35753 6.01779 1.36968 6.01236 1.38206C6.00669 1.39513 6.00171 1.40866 5.99674 1.42196C5.99177 1.43503 5.98668 1.44798 5.9824 1.46117C5.97812 1.47447 5.97465 1.488 5.97095 1.50153C5.96725 1.51541 5.96332 1.52918 5.96019 1.54317C5.9573 1.55624 5.95533 1.56954 5.95302 1.58273C5.95048 1.59777 5.94793 1.6128 5.94608 1.62784C5.94458 1.64033 5.94388 1.65305 5.94296 1.66578C5.9418 1.68197 5.94076 1.69816 5.94053 1.71447C5.94041 1.71921 5.93984 1.72384 5.93984 1.72858V7.0782C5.93984 7.55739 6.32811 7.94567 6.8073 7.94567C7.28649 7.94567 7.67477 7.55739 7.67477 7.0782V3.65517L15.3873 10.4835C15.347 10.5119 15.3083 10.5432 15.2722 10.5792L7.67466 18.1767V12.4759C7.67466 11.9967 7.28638 11.6085 6.80719 11.6085C6.328 11.6085 5.93972 11.9967 5.93972 12.4759V13.5359H1.4578C0.978611 13.5359 0.590332 13.9241 0.590332 14.4033C0.590332 14.8825 0.978611 15.2708 1.4578 15.2708H5.93972V20.271C5.93972 20.7502 6.328 21.1385 6.80719 21.1385H34.1324C34.161 21.1385 34.1896 21.137 34.218 21.1342C34.2313 21.1329 34.2442 21.1304 34.2572 21.1285C34.2723 21.1264 34.2871 21.1247 34.3019 21.1218ZM33.2651 18.1768L25.6675 10.5793C25.6626 10.5744 25.6574 10.5704 25.6524 10.5658L31.3642 5.71986C31.7294 5.40988 31.7743 4.86257 31.4643 4.49719C31.1546 4.13205 30.6073 4.08694 30.2417 4.39703L20.482 12.6773L9.09569 2.5964H33.2651V18.1768ZM16.4991 11.8062C16.561 11.7444 16.6112 11.6754 16.6504 11.6021L19.8949 14.4746C20.0589 14.6197 20.2643 14.6926 20.4699 14.6926C20.6696 14.6926 20.8691 14.624 21.0312 14.4866L24.3377 11.6813C24.3678 11.7253 24.4016 11.7673 24.4406 11.8062L32.0381 19.4038H8.9016L16.4991 11.8062Z" fill="white"/>
</svg>
